<?xml version="1.0" encoding="UTF-8"?>
<svg version="1.1" xmlns="http://www.w3.org/2000/svg" width="106" height="110">
<path d="M0 0 C34.98 0 69.96 0 106 0 C106 36.3 106 72.6 106 110 C71.02 110 36.04 110 0 110 C0 73.7 0 37.4 0 0 Z " fill="#030102" transform="translate(0,0)"/>
<path d="M0 0 C0 4.62 0 9.24 0 14 C-3.3 14.33 -6.6 14.66 -10 15 C-9.67 17.64 -9.34 20.28 -9 23 C-6.36 23 -3.72 23 -1 23 C-1 25.97 -1 28.94 -1 32 C1.64 32 4.28 32 7 32 C7.103125 30.88625 7.20625 29.7725 7.3125 28.625 C7.539375 27.42875 7.76625 26.2325 8 25 C11 23 11 23 13.6875 23.375 C14.8321875 23.684375 14.8321875 23.684375 16 24 C16 24.66 16 25.32 16 26 C16.57621094 25.84144531 17.15242188 25.68289062 17.74609375 25.51953125 C25.59537145 23.71025233 32.92641501 25.28225533 40 29 C48.09837524 35.48855623 49.48451895 45.30092131 51 55 C51.66 55 52.32 55 53 55 C57 61.75 57 61.75 57 64 C57.66 64 58.32 64 59 64 C59 65.32 59 66.64 59 68 C55.7 68 52.4 68 49 68 C49.0825 69.588125 49.165 71.17625 49.25 72.8125 C49.49102927 77.4523135 49.49102927 77.4523135 47.375 79.8125 C44.33233486 81.33383257 42.13553802 81.29789798 38.75 81.1875 C37.13351563 81.14689453 37.13351563 81.14689453 35.484375 81.10546875 C34.66453125 81.07066406 33.8446875 81.03585938 33 81 C33 84.63 33 88.26 33 92 C27.72 92 22.44 92 17 92 C17 91.34 17 90.68 17 90 C21.29 90 25.58 90 30 90 C30.2165625 87.0609375 30.2165625 87.0609375 30.4375 84.0625 C30.875 78.125 30.875 78.125 32 77 C34.53049402 76.92686433 37.03304837 76.90752473 39.5625 76.9375 C40.62887695 76.94426758 40.62887695 76.94426758 41.71679688 76.95117188 C43.47790013 76.96299136 45.23896036 76.98092737 47 77 C47 73.04 47 69.08 47 65 C49.31 65 51.62 65 54 65 C53.51789063 64.26136719 53.03578125 63.52273437 52.5390625 62.76171875 C48.69489001 56.58750702 46.41237169 51.60791207 45.44921875 44.41015625 C44.48070041 39.21384479 40.88488041 35.38360552 37 32 C35.515 31.505 35.515 31.505 34 31 C34 30.34 34 29.68 34 29 C28.39 29 22.78 29 17 29 C17 29.99 17 30.98 17 32 C21.62 32 26.24 32 31 32 C31.0825 33.258125 31.165 34.51625 31.25 35.8125 C31.6280163 39.2783925 31.6280163 39.2783925 34 41.8125 C34.99 42.4003125 34.99 42.4003125 36 43 C37.49084832 47.47254497 37.49084832 51.52745503 36 56 C35.34 56 34.68 56 34 56 C33.773125 56.61875 33.54625 57.2375 33.3125 57.875 C31.55899629 60.71400601 30.17103473 61.04780382 27 62 C24.02734375 61.94140625 24.02734375 61.94140625 20.9375 61.5625 C17.31221101 61.12819678 14.49452012 60.85192025 11 62 C11 62.99 11 63.98 11 65 C12.32 65.66 13.64 66.32 15 67 C15 68.65 15 70.3 15 72 C13.02 72.99 13.02 72.99 11 74 C11 74.66 11 75.32 11 76 C12.32 76.33 13.64 76.66 15 77 C15.93423645 80.01031744 16.04449911 80.86650268 15 84 C14.05125 84.061875 13.1025 84.12375 12.125 84.1875 C10.578125 84.5896875 10.578125 84.5896875 9 85 C7.75285597 87.40952023 7.75285597 87.40952023 7 90 C2.54708696 92.96860869 -1.77743979 92.63280657 -7 92 C-10.1875 90.1875 -10.1875 90.1875 -12 88 C-12 87.01 -12 86.02 -12 85 C-13.175625 85.0928125 -13.175625 85.0928125 -14.375 85.1875 C-15.24125 85.125625 -16.1075 85.06375 -17 85 C-19 82 -19 82 -18.625 79.3125 C-18.315625 78.1678125 -18.315625 78.1678125 -18 77 C-16.02 76.505 -16.02 76.505 -14 76 C-14 75.34 -14 74.68 -14 74 C-15.32 73.34 -16.64 72.68 -18 72 C-18 70.35 -18 68.7 -18 67 C-16.02 66.01 -16.02 66.01 -14 65 C-14 64.01 -14 63.02 -14 62 C-14.886875 61.773125 -15.77375 61.54625 -16.6875 61.3125 C-24.15227049 58.35476075 -28.80377984 50.58715959 -32.875 43.9375 C-35.58162104 36.88731943 -35.29218232 27.14934126 -32.5 20.1875 C-28.1947674 12.1834056 -22.88814199 4.87360982 -14 2 C-9.15870044 0.60284644 -5.07822176 0 0 0 Z " fill="#DB8731" transform="translate(41,8)"/>
<path d="M0 0 C0 0.66 0 1.32 0 2 C0.58523437 2.08894531 1.17046875 2.17789063 1.7734375 2.26953125 C6.00075274 3.6563873 8.44789507 7.5069675 11 11 C12.46225052 14.25683071 12.97679176 16.69829293 13.25 20.25 C14.17081968 24.85409841 16.18343293 27.9618393 18.72265625 31.86328125 C20 34 20 34 20 36 C17.69 36 15.38 36 13 36 C13 39.96 13 43.92 13 48 C8.05 48.33 3.1 48.66 -2 49 C-2.66 52.96 -3.32 56.92 -4 61 C-8.29 61 -12.58 61 -17 61 C-17 61.66 -17 62.32 -17 63 C-12.05 63 -7.1 63 -2 63 C-2 63.33 -2 63.66 -2 64 C-5.4374823 64.02901394 -8.87493312 64.04680335 -12.3125 64.0625 C-13.28896484 64.07087891 -14.26542969 64.07925781 -15.27148438 64.08789062 C-16.20927734 64.09111328 -17.14707031 64.09433594 -18.11328125 64.09765625 C-18.97735596 64.10289307 -19.84143066 64.10812988 -20.73168945 64.11352539 C-23 64 -23 64 -26 63 C-27.33106622 62.65772583 -28.66400079 62.32248257 -30 62 C-29.0409375 61.071875 -29.0409375 61.071875 -28.0625 60.125 C-25.96116416 58.17402388 -25.96116416 58.17402388 -25 56 C-21.9375 55.375 -21.9375 55.375 -19 55 C-19 52.69 -19 50.38 -19 48 C-20.32 47.67 -21.64 47.34 -23 47 C-23 46.34 -23 45.68 -23 45 C-22.01 44.34 -21.02 43.68 -20 43 C-19.5 40.5 -19.5 40.5 -20 38 C-20.99 37.34 -21.98 36.68 -23 36 C-23 35.01 -23 34.02 -23 33 C-18.62333682 30.22916288 -14.89784254 31.25869074 -9.97265625 31.90625 C-6.69677124 32.00956306 -4.86770765 31.55604311 -2 30 C-1.34 29.01 -0.68 28.02 0 27 C0.66 27 1.32 27 2 27 C2.05437607 25.41705218 2.09296271 23.83355744 2.125 22.25 C2.14820313 21.36828125 2.17140625 20.4865625 2.1953125 19.578125 C1.98637114 16.82009905 1.51063339 15.30096477 0 13 C-0.99 12.34 -1.98 11.68 -3 11 C-3.40843923 8.28796348 -3.13336867 5.7562858 -3 3 C-7.62 3 -12.24 3 -17 3 C-17 2.01 -17 1.02 -17 0 C-11.99632677 -1.33431286 -4.7581135 -2.37905675 0 0 Z " fill="#070205" transform="translate(75,37)"/>
<path d="M0 0 C3.3 0 6.6 0 10 0 C10.33 2.64 10.66 5.28 11 8 C14.465 7.505 14.465 7.505 18 7 C18.33 4.69 18.66 2.38 19 0 C22.3 0 25.6 0 29 0 C29.33 2.97 29.66 5.94 30 9 C32.64 9.66 35.28 10.32 38 11 C38.04241723 13.33294775 38.04092937 15.66702567 38 18 C37 19 37 19 35.15234375 19.09765625 C33.1015625 19.06510417 31.05078125 19.03255208 29 19 C29 23.62 29 28.24 29 33 C26.03 33 23.06 33 20 33 C19.67 31.02 19.34 29.04 19 27 C17.948125 26.773125 16.89625 26.54625 15.8125 26.3125 C11.80198218 25.15967909 9.65457143 23.26133061 7 20 C5.6875 17.1875 5.6875 17.1875 5 15 C4.34 15 3.68 15 3 15 C1.094753 9.89665983 -0.42589023 5.53657294 0 0 Z " fill="#311005" transform="translate(10,40)"/>
<path d="M0 0 C0.66 0 1.32 0 2 0 C2.33 0.66 2.66 1.32 3 2 C3.66 2 4.32 2 5 2 C5 2.66 5 3.32 5 4 C10.445 4.495 10.445 4.495 16 5 C16.495 7.475 16.495 7.475 17 10 C17.66 10 18.32 10 19 10 C19 10.66 19 11.32 19 12 C19.66 12.33 20.32 12.66 21 13 C18.69 13.33 16.38 13.66 14 14 C13.855625 14.7425 13.71125 15.485 13.5625 16.25 C13.09812508 18.52027739 12.58136431 20.75759479 12 23 C11.01 23 10.02 23 9 23 C9 24.32 9 25.64 9 27 C7.88625 27.103125 6.7725 27.20625 5.625 27.3125 C4.42875 27.539375 3.2325 27.76625 2 28 C1.34 28.99 0.68 29.98 0 31 C-0.66 31 -1.32 31 -2 31 C-1.67 32.98 -1.34 34.96 -1 37 C0.485 37.495 0.485 37.495 2 38 C2 38.99 2 39.98 2 41 C-1.71526101 42.8576305 -6.15333107 42.43753467 -10.25 42.625 C-11.19230469 42.6765625 -12.13460937 42.728125 -13.10546875 42.78125 C-17.89729878 43.00975241 -22.28111615 43.06095711 -27 42 C-26.67 40.35 -26.34 38.7 -26 37 C-21.05392242 35.50440035 -16.12641556 35.93897124 -11 36 C-10.67 31.71 -10.34 27.42 -10 23 C-8.02 22.34 -6.04 21.68 -4 21 C-4 17.7 -4 14.4 -4 11 C-4.804375 10.773125 -5.60875 10.54625 -6.4375 10.3125 C-7.283125 9.879375 -8.12875 9.44625 -9 9 C-9.8125 6.375 -9.8125 6.375 -10 4 C-4.25 3.875 -4.25 3.875 -2 5 C-1.34 3.35 -0.68 1.7 0 0 Z " fill="#F78B12" transform="translate(52,38)"/>
<path d="M0 0 C3.63 0.33 7.26 0.66 11 1 C11.33 2.32 11.66 3.64 12 5 C12.639375 4.814375 13.27875 4.62875 13.9375 4.4375 C14.618125 4.293125 15.29875 4.14875 16 4 C16.33 4.33 16.66 4.66 17 5 C17.33 4.01 17.66 3.02 18 2 C19.98 1.67 21.96 1.34 24 1 C25 6.75 25 6.75 25 9 C26.98 9.33 28.96 9.66 31 10 C30.67 11.32 30.34 12.64 30 14 C30.66 14 31.32 14 32 14 C31.7215625 14.9590625 31.7215625 14.9590625 31.4375 15.9375 C31.293125 16.618125 31.14875 17.29875 31 18 C31.33 18.33 31.66 18.66 32 19 C32.04063832 20.66617115 32.042721 22.33388095 32 24 C31.01 24 30.02 24 29 24 C30.05960938 24.20496094 31.11921875 24.40992187 32.2109375 24.62109375 C33.59898822 24.89307666 34.98700744 25.16522044 36.375 25.4375 C37.07367188 25.57220703 37.77234375 25.70691406 38.4921875 25.84570312 C43.7734375 26.88671875 43.7734375 26.88671875 46 28 C46 28.66 46 29.32 46 30 C45.113125 29.835 44.22625 29.67 43.3125 29.5 C37.58209173 28.65938226 31.77575419 28.9218319 26 29 C26 28.34 26 27.68 26 27 C23.69 27.33 21.38 27.66 19 28 C18.01 31.465 18.01 31.465 17 35 C14.36 35 11.72 35 9 35 C9 32.03 9 29.06 9 26 C6.36 26 3.72 26 1 26 C-0.35439668 23.29120665 -0.06501451 20.99066732 0 18 C3 17 3 17 10 17 C10 12.38 10 7.76 10 3 C6.6278125 3.7734375 6.6278125 3.7734375 3.1875 4.5625 C-3.625 6.125 -3.625 6.125 -7 5 C-5.68 4.67 -4.36 4.34 -3 4 C-3 3.34 -3 2.68 -3 2 C-2.01 2 -1.02 2 0 2 C0 1.34 0 0.68 0 0 Z " fill="#0B0304" transform="translate(31,5)"/>
<path d="M0 0 C0.99 0.33 1.98 0.66 3 1 C3 3.31 3 5.62 3 8 C2.34 8 1.68 8 1 8 C1 8.66 1 9.32 1 10 C0.05125 10.061875 -0.8975 10.12375 -1.875 10.1875 C-2.90625 10.455625 -3.9375 10.72375 -5 11 C-6.45291273 13.46255685 -6.45291273 13.46255685 -7 16 C-8.36125 15.9690625 -8.36125 15.9690625 -9.75 15.9375 C-12.42672588 15.9889755 -14.46988052 16.2215017 -17 17 C-17 17.99 -17 18.98 -17 20 C-15.68 20.66 -14.36 21.32 -13 22 C-13 23.65 -13 25.3 -13 27 C-14.98 27.99 -14.98 27.99 -17 29 C-17 29.66 -17 30.32 -17 31 C-15.68 31.33 -14.36 31.66 -13 32 C-12.06576355 35.01031744 -11.95550089 35.86650268 -13 39 C-13.94875 39.061875 -14.8975 39.12375 -15.875 39.1875 C-16.90625 39.455625 -17.9375 39.72375 -19 40 C-20.24714403 42.40952023 -20.24714403 42.40952023 -21 45 C-25.45291304 47.96860869 -29.77743979 47.63280657 -35 47 C-38.1875 45.1875 -38.1875 45.1875 -40 43 C-40 42.01 -40 41.02 -40 40 C-41.175625 40.0928125 -41.175625 40.0928125 -42.375 40.1875 C-43.24125 40.125625 -44.1075 40.06375 -45 40 C-47 37 -47 37 -46.625 34.3125 C-46.41875 33.549375 -46.2125 32.78625 -46 32 C-44.68 31.67 -43.36 31.34 -42 31 C-42.33 29.68 -42.66 28.36 -43 27 C-33.76 26.67 -24.52 26.34 -15 26 C-15.33 25.01 -15.66 24.02 -16 23 C-16.66 22.67 -17.32 22.34 -18 22 C-18.875 19.1875 -18.875 19.1875 -19 16 C-17.02952333 13.19586012 -15.6457278 12.19986813 -12.375 11.1875 C-10 11 -10 11 -8 12 C-8 10.68 -8 9.36 -8 8 C-7.4225 7.979375 -6.845 7.95875 -6.25 7.9375 C-2.61609879 6.4233745 -1.75149584 3.44043825 0 0 Z " fill="#BA652D" transform="translate(69,53)"/>
<path d="M0 0 C0 0.66 0 1.32 0 2 C0.58523437 2.08894531 1.17046875 2.17789063 1.7734375 2.26953125 C6.00075274 3.6563873 8.44789507 7.5069675 11 11 C12.46225052 14.25683071 12.97679176 16.69829293 13.25 20.25 C14.17081968 24.85409841 16.18343293 27.9618393 18.72265625 31.86328125 C20 34 20 34 20 36 C17.69 36 15.38 36 13 36 C13 39.96 13 43.92 13 48 C8.05 48 3.1 48 -2 48 C-2 47.67 -2 47.34 -2 47 C3.445 46.505 3.445 46.505 9 46 C9.66 42.37 10.32 38.74 11 35 C12.65 35 14.3 35 16 35 C15.505 32.03 15.505 32.03 15 29 C13.29887008 28.19530151 13.29887008 28.19530151 11 28 C7.78287055 29.35814007 7.78287055 29.35814007 5 31 C5 30.34 5 29.68 5 29 C4.01 29 3.02 29 2 29 C1.731875 29.61875 1.46375 30.2375 1.1875 30.875 C0 33 0 33 -3 35 C-6.5663379 35.13866684 -10.08604909 34.9950015 -13.65234375 34.875 C-16.88025761 34.99552887 -18.26479531 35.47691618 -21 37 C-21.66 36.67 -22.32 36.34 -23 36 C-23 35.01 -23 34.02 -23 33 C-18.62333682 30.22916288 -14.89784254 31.25869074 -9.97265625 31.90625 C-6.69677124 32.00956306 -4.86770765 31.55604311 -2 30 C-1.34 29.01 -0.68 28.02 0 27 C0.66 27 1.32 27 2 27 C2.05437607 25.41705218 2.09296271 23.83355744 2.125 22.25 C2.14820312 21.36828125 2.17140625 20.4865625 2.1953125 19.578125 C1.98637114 16.82009905 1.51063339 15.30096477 0 13 C-0.99 12.34 -1.98 11.68 -3 11 C-3.40843923 8.28796348 -3.13336867 5.7562858 -3 3 C-7.62 3 -12.24 3 -17 3 C-17 2.01 -17 1.02 -17 0 C-11.99632677 -1.33431286 -4.7581135 -2.37905675 0 0 Z " fill="#0F0203" transform="translate(75,37)"/>
<path d="M0 0 C0 2.64 0 5.28 0 8 C-1.134375 8.12375 -2.26875 8.2475 -3.4375 8.375 C-5.2009375 8.684375 -5.2009375 8.684375 -7 9 C-8.14352916 11.28705831 -8.10334439 12.59264762 -8.0625 15.125 C-8.041875 16.40375 -8.02125 17.6825 -8 19 C-7.01 19.33 -6.02 19.66 -5 20 C-5 20.66 -5 21.32 -5 22 C-4.01 22 -3.02 22 -2 22 C-1.67 23.65 -1.34 25.3 -1 27 C-3.97 26.67 -6.94 26.34 -10 26 C-10 26.66 -10 27.32 -10 28 C-10.66 28 -11.32 28 -12 28 C-12.33 29.65 -12.66 31.3 -13 33 C-13.99 32.67 -14.98 32.34 -16 32 C-16.33 30.35 -16.66 28.7 -17 27 C-20.3 26.67 -23.6 26.34 -27 26 C-26.60190889 23.91303753 -26.1807572 21.8304656 -25.75 19.75 C-25.51796875 18.58984375 -25.2859375 17.4296875 -25.046875 16.234375 C-23.92219049 12.75960344 -22.85155968 11.23261649 -20 9 C-19.34 9 -18.68 9 -18 9 C-18 7.68 -18 6.36 -18 5 C-11.75838097 1.41874318 -7.24579719 -0.67090715 0 0 Z " fill="#F78A11" transform="translate(38,11)"/>
<path d="M0 0 C5.80690236 3.05199984 8.89659734 7.94729315 10.9296875 14.05859375 C12.06762087 18.42946363 12.82271098 22.86456899 13.51953125 27.32421875 C14.17953125 27.32421875 14.83953125 27.32421875 15.51953125 27.32421875 C19.51953125 34.07421875 19.51953125 34.07421875 19.51953125 36.32421875 C20.17953125 36.32421875 20.83953125 36.32421875 21.51953125 36.32421875 C21.51953125 37.64421875 21.51953125 38.96421875 21.51953125 40.32421875 C18.21953125 40.32421875 14.91953125 40.32421875 11.51953125 40.32421875 C11.60203125 41.91234375 11.68453125 43.50046875 11.76953125 45.13671875 C12.01056052 49.77653225 12.01056052 49.77653225 9.89453125 52.13671875 C6.85186611 53.65805132 4.65506927 53.62211673 1.26953125 53.51171875 C-0.34695312 53.47111328 -0.34695312 53.47111328 -1.99609375 53.4296875 C-2.8159375 53.39488281 -3.63578125 53.36007813 -4.48046875 53.32421875 C-4.48046875 56.95421875 -4.48046875 60.58421875 -4.48046875 64.32421875 C-9.76046875 64.32421875 -15.04046875 64.32421875 -20.48046875 64.32421875 C-20.48046875 63.66421875 -20.48046875 63.00421875 -20.48046875 62.32421875 C-16.19046875 62.32421875 -11.90046875 62.32421875 -7.48046875 62.32421875 C-7.33609375 60.36484375 -7.19171875 58.40546875 -7.04296875 56.38671875 C-6.60546875 50.44921875 -6.60546875 50.44921875 -5.48046875 49.32421875 C-2.94997473 49.25108308 -0.44742038 49.23174348 2.08203125 49.26171875 C2.79294922 49.26623047 3.50386719 49.27074219 4.23632812 49.27539062 C5.99743138 49.28721011 7.75849161 49.30514612 9.51953125 49.32421875 C9.51953125 45.36421875 9.51953125 41.40421875 9.51953125 37.32421875 C11.82953125 37.32421875 14.13953125 37.32421875 16.51953125 37.32421875 C16.03742188 36.58558594 15.5553125 35.84695312 15.05859375 35.0859375 C11.21442126 28.91172577 8.93190294 23.93213082 7.96875 16.734375 C7.00023166 11.53806354 3.40441166 7.70782427 -0.48046875 4.32421875 C-1.47046875 3.99421875 -2.46046875 3.66421875 -3.48046875 3.32421875 C-3.48046875 2.66421875 -3.48046875 2.00421875 -3.48046875 1.32421875 C-9.09046875 1.32421875 -14.70046875 1.32421875 -20.48046875 1.32421875 C-20.48046875 0.33421875 -20.48046875 -0.65578125 -20.48046875 -1.67578125 C-13.39075878 -4.03901791 -6.82784217 -2.72158744 0 0 Z " fill="#C08A62" transform="translate(78.48046875,35.67578125)"/>
<path d="M0 0 C1.5 1.375 1.5 1.375 3 3 C3 3.66 3 4.32 3 5 C5.97 5.495 5.97 5.495 9 6 C8.67 7.32 8.34 8.64 8 10 C8.66 10 9.32 10 10 10 C9.814375 10.639375 9.62875 11.27875 9.4375 11.9375 C9.293125 12.618125 9.14875 13.29875 9 14 C9.33 14.33 9.66 14.66 10 15 C10.04063832 16.66617115 10.042721 18.33388095 10 20 C9.01 20 8.02 20 7 20 C8.05960938 20.20496094 9.11921875 20.40992187 10.2109375 20.62109375 C11.59898822 20.89307666 12.98700744 21.16522044 14.375 21.4375 C15.07367188 21.57220703 15.77234375 21.70691406 16.4921875 21.84570312 C21.7734375 22.88671875 21.7734375 22.88671875 24 24 C24 24.66 24 25.32 24 26 C23.113125 25.835 22.22625 25.67 21.3125 25.5 C15.58209173 24.65938226 9.77575419 24.9218319 4 25 C4 24.34 4 23.68 4 23 C0.04 23.495 0.04 23.495 -4 24 C-4 22.68 -4 21.36 -4 20 C-4.99 19.34 -5.98 18.68 -7 18 C-7.29296875 15.9765625 -7.29296875 15.9765625 -7.1875 13.625 C-7.16042969 12.85414062 -7.13335937 12.08328125 -7.10546875 11.2890625 C-7.07066406 10.53367187 -7.03585938 9.77828125 -7 9 C-7 7.68 -7 6.36 -7 5 C-5.35 5 -3.7 5 -2 5 C-1.34 3.35 -0.68 1.7 0 0 Z " fill="#1E0A06" transform="translate(53,9)"/>
<path d="M0 0 C2.475 0.495 2.475 0.495 5 1 C5.36368892 2.60203467 5.71561952 4.20674203 6.0625 5.8125 C6.35833984 7.15248047 6.35833984 7.15248047 6.66015625 8.51953125 C7 11 7 11 6 14 C5.77548542 16.22574335 5.59217122 18.45581519 5.4375 20.6875 C5.35371094 21.86699219 5.26992188 23.04648438 5.18359375 24.26171875 C5.09271484 25.61716797 5.09271484 25.61716797 5 27 C3.68 27 2.36 27 1 27 C0.505 24.525 0.505 24.525 0 22 C-1.98 22 -3.96 22 -6 22 C-6 21.34 -6 20.68 -6 20 C-7.32 20 -8.64 20 -10 20 C-10.66 19.01 -11.32 18.02 -12 17 C-12.99 17 -13.98 17 -15 17 C-16.125 11.375 -16.125 11.375 -15 8 C-13.87851562 7.96132813 -13.87851562 7.96132813 -12.734375 7.921875 C-6.65848561 7.68590669 -6.65848561 7.68590669 -1.3125 5.125 C0.26274644 2.99087686 0.26274644 2.99087686 0 0 Z " fill="#070205" transform="translate(32,43)"/>
<path d="M0 0 C1.60367894 4.00919734 0.31933425 7.04199726 -1 11 C-1.33 11.66 -1.66 12.32 -2 13 C-0.741875 12.938125 0.51625 12.87625 1.8125 12.8125 C5.73214286 12.8125 5.73214286 12.8125 7.875 14.3125 C8.91666667 15.875 9.95833333 17.4375 11 19 C11.66 18.67 12.32 18.34 13 18 C13 17.01 13 16.02 13 15 C13.66 15 14.32 15 15 15 C15 14.34 15 13.68 15 13 C17.97 13.33 20.94 13.66 24 14 C23.67 12.35 23.34 10.7 23 9 C22.01 9 21.02 9 20 9 C20 8.34 20 7.68 20 7 C21.98 7 23.96 7 26 7 C26 9.97 26 12.94 26 16 C22.7 16 19.4 16 16 16 C16.061875 17.11375 16.12375 18.2275 16.1875 19.375 C16.0946875 21.169375 16.0946875 21.169375 16 23 C12.77786243 25.14809171 11.72224599 25.29386153 8 25 C7 24 7 24 6.90234375 22.15234375 C6.95117188 19.07617188 6.95117188 19.07617188 7 16 C3.04 16 -0.92 16 -5 16 C-4.67 13.03 -4.34 10.06 -4 7 C-3.34 7 -2.68 7 -2 7 C-1.855625 6.030625 -1.71125 5.06125 -1.5625 4.0625 C-1 1 -1 1 0 0 Z " fill="#E58E33" transform="translate(13,24)"/>
<path d="M0 0 C0.33 0 0.66 0 1 0 C2.66633133 6.72041065 4.25862575 13.4827485 1 20 C2.81293089 19.85962479 4.6253443 19.71255111 6.4375 19.5625 C7.44683594 19.48128906 8.45617187 19.40007812 9.49609375 19.31640625 C11.93640779 19.26788532 11.93640779 19.26788532 13 18 C13.07179964 16.48071962 13.08392007 14.95832518 13.0625 13.4375 C13.05347656 12.61121094 13.04445313 11.78492187 13.03515625 10.93359375 C13.02355469 10.29550781 13.01195313 9.65742187 13 9 C14.32 9.33 15.64 9.66 17 10 C16.34 13.96 15.68 17.92 15 22 C10.71 22 6.42 22 2 22 C2 22.66 2 23.32 2 24 C6.95 24 11.9 24 17 24 C17 24.33 17 24.66 17 25 C13.5625177 25.02901394 10.12506688 25.04680335 6.6875 25.0625 C5.71103516 25.07087891 4.73457031 25.07925781 3.72851562 25.08789062 C2.79072266 25.09111328 1.85292969 25.09433594 0.88671875 25.09765625 C0.02264404 25.10289307 -0.84143066 25.10812988 -1.73168945 25.11352539 C-4 25 -4 25 -7 24 C-8.33106622 23.65772583 -9.66400079 23.32248257 -11 23 C-10.360625 22.38125 -9.72125 21.7625 -9.0625 21.125 C-6.96116416 19.17402388 -6.96116416 19.17402388 -6 17 C-2.9375 16.375 -2.9375 16.375 0 16 C0 13.69 0 11.38 0 9 C-1.32 8.67 -2.64 8.34 -4 8 C-4 7.34 -4 6.68 -4 6 C-3.01 5.34 -2.02 4.68 -1 4 C-0.27617533 1.94074861 -0.27617533 1.94074861 0 0 Z " fill="#1A0201" transform="translate(56,76)"/>
<path d="M0 0 C0.66 0 1.32 0 2 0 C2.50435694 1.9363704 3.00333874 3.87414146 3.5 5.8125 C3.7784375 6.89144531 4.056875 7.97039063 4.34375 9.08203125 C5 12 5 12 5 15 C5.66 15 6.32 15 7 15 C7.45375 16.051875 7.9075 17.10375 8.375 18.1875 C10.36367156 21.78880341 12.45783396 22.92977066 16.1875 24.5625 C18.84765625 25.734375 18.84765625 25.734375 21 27 C22.125 30.3125 22.125 30.3125 22 33 C24.97 33 27.94 33 31 33 C31 33.66 31 34.32 31 35 C27.04 35 23.08 35 19 35 C17.54685336 39.60532389 17.54685336 39.60532389 19 42 C17.68 41.34 16.36 40.68 15 40 C15 38.35 15 36.7 15 35 C16.32 34.34 17.64 33.68 19 33 C19 32.01 19 31.02 19 30 C18.113125 29.773125 17.22625 29.54625 16.3125 29.3125 C9.18938732 26.4901346 4.38265387 19.11549305 0.625 12.625 C-0.36957409 8.44778882 -0.14931632 4.27210589 0 0 Z " fill="#B98963" transform="translate(8,40)"/>
<path d="M0 0 C8.91 0 17.82 0 27 0 C27 1.65 27 3.3 27 5 C22.4025367 6.53248777 17.81559361 6.22543064 13 6.25 C11.989375 6.270625 10.97875 6.29125 9.9375 6.3125 C8.968125 6.31765625 7.99875 6.3228125 7 6.328125 C6.113125 6.3374707 5.22625 6.34681641 4.3125 6.35644531 C1.57023079 5.93375601 0.70817789 5.12819861 -1 3 C-0.67 2.01 -0.34 1.02 0 0 Z " fill="#F28B1D" transform="translate(26,86)"/>
<path d="M0 0 C1.5 1.375 1.5 1.375 3 3 C3 3.66 3 4.32 3 5 C5.97 5.495 5.97 5.495 9 6 C8.01 7.485 8.01 7.485 7 9 C6.54860541 11.0492094 6.54860541 11.0492094 6.375 13.1875 C6.25125 14.445625 6.1275 15.70375 6 17 C1.545 16.01 1.545 16.01 -3 15 C-3 15.66 -3 16.32 -3 17 C-3.66 17 -4.32 17 -5 17 C-5 14.36 -5 11.72 -5 9 C-5.99 8.67 -6.98 8.34 -8 8 C-7.67 7.01 -7.34 6.02 -7 5 C-5.35 5 -3.7 5 -2 5 C-1.34 3.35 -0.68 1.7 0 0 Z " fill="#AF7440" transform="translate(53,9)"/>
<path d="M0 0 C0.99 0.33 1.98 0.66 3 1 C2.01 1.495 2.01 1.495 1 2 C1 3.65 1 5.3 1 7 C5.97011673 8.99118241 10.12333135 9.24845695 15.375 9.125 C16.11105469 9.11597656 16.84710938 9.10695313 17.60546875 9.09765625 C19.4037888 9.07430144 21.20193911 9.03843836 23 9 C23.33 10.32 23.66 11.64 24 13 C19.97848914 16.56731669 16.84070037 16.49841445 11.640625 16.359375 C8.0892925 15.87605756 6.2778228 14.74909648 4 12 C4 11.01 4 10.02 4 9 C2.824375 9.0928125 2.824375 9.0928125 1.625 9.1875 C0.325625 9.0946875 0.325625 9.0946875 -1 9 C-3 6 -3 6 -2.75 3.375 C-2.5025 2.59125 -2.255 1.8075 -2 1 C-1.34 0.67 -0.68 0.34 0 0 Z " fill="#C0824D" transform="translate(25,84)"/>
<path d="M0 0 C3.63 0.33 7.26 0.66 11 1 C11.33 2.32 11.66 3.64 12 5 C12.639375 4.814375 13.27875 4.62875 13.9375 4.4375 C14.618125 4.293125 15.29875 4.14875 16 4 C16.33 4.33 16.66 4.66 17 5 C17.33 4.01 17.66 3.02 18 2 C19.98 1.67 21.96 1.34 24 1 C24.33 1.99 24.66 2.98 25 4 C21.82679218 7.53586014 19.83256305 9.58578031 15 10 C15 10.99 15 11.98 15 13 C13.35 14.32 11.7 15.64 10 17 C10 12.38 10 7.76 10 3 C6.6278125 3.7734375 6.6278125 3.7734375 3.1875 4.5625 C-3.625 6.125 -3.625 6.125 -7 5 C-5.68 4.67 -4.36 4.34 -3 4 C-3 3.34 -3 2.68 -3 2 C-2.01 2 -1.02 2 0 2 C0 1.34 0 0.68 0 0 Z " fill="#1B0303" transform="translate(31,5)"/>
<path d="M0 0 C0.33 0 0.66 0 1 0 C1.00257813 0.94359375 1.00515625 1.8871875 1.0078125 2.859375 C1.30585169 12.75427602 2.70101605 21.56324247 9.953125 29.00390625 C11.593339 30.38742009 13.29160354 31.70161869 15 33 C15 33.66 15 34.32 15 35 C16.98 35.66 18.96 36.32 21 37 C21 37.99 21 38.98 21 40 C20.01 40.66 19.02 41.32 18 42 C17.5 44.5 17.5 44.5 18 47 C18.99 47.66 19.98 48.32 21 49 C21 49.66 21 50.32 21 51 C19.515 51.495 19.515 51.495 18 52 C15.97441119 48.65060119 15.78261013 46.13037449 15.875 42.25 C15.89304687 41.26515625 15.91109375 40.2803125 15.9296875 39.265625 C15.95289063 38.51796875 15.97609375 37.7703125 16 37 C15.37996094 36.87109375 14.75992187 36.7421875 14.12109375 36.609375 C11.21373026 35.77411035 10.03432897 34.21926797 8 32 C7.113125 31.113125 6.22625 30.22625 5.3125 29.3125 C2 26 2 26 1.9375 22.9375 C1.958125 21.968125 1.97875 20.99875 2 20 C1.34 20 0.68 20 0 20 C0 13.4 0 6.8 0 0 Z " fill="#2E0B03" transform="translate(6,33)"/>
<path d="M0 0 C0 0.66 0 1.32 0 2 C0.66 2 1.32 2 2 2 C1.67 5.3 1.34 8.6 1 12 C0.34 12 -0.32 12 -1 12 C-1.33 12.99 -1.66 13.98 -2 15 C-3.31647119 15.69937532 -4.65022151 16.36729133 -6 17 C-6.33 17.66 -6.66 18.32 -7 19 C-9.4375 18.625 -9.4375 18.625 -12 18 C-12.33 17.34 -12.66 16.68 -13 16 C-11.02579865 13.47740939 -10.03254358 13.0070192 -6.8125 12.3125 C-5.884375 12.209375 -4.95625 12.10625 -4 12 C-4 11.34 -4 10.68 -4 10 C-3.34 10 -2.68 10 -2 10 C-2.33 7.69 -2.66 5.38 -3 3 C-3.66 3 -4.32 3 -5 3 C-6.32 5.31 -7.64 7.62 -9 10 C-9.97533063 7.36660729 -10.019574 6.07651653 -9.3125 3.3125 C-8 1 -8 1 -6.125 0.1875 C-4.09028218 0.00796607 -2.04262308 0 0 0 Z " fill="#E18A30" transform="translate(74,51)"/>
<path d="M0 0 C0.99 0.33 1.98 0.66 3 1 C3 3.31 3 5.62 3 8 C2.34 8 1.68 8 1 8 C1 8.66 1 9.32 1 10 C-0.423125 10.0928125 -0.423125 10.0928125 -1.875 10.1875 C-2.90625 10.455625 -3.9375 10.72375 -5 11 C-6.45291273 13.46255685 -6.45291273 13.46255685 -7 16 C-8.36125 15.9690625 -8.36125 15.9690625 -9.75 15.9375 C-12.42672588 15.9889755 -14.46988052 16.2215017 -17 17 C-17 18.65 -17 20.3 -17 22 C-19 18.25 -19 18.25 -19 16 C-16.92137387 13.45945695 -15.535929 12.16588279 -12.375 11.1875 C-10 11 -10 11 -8 12 C-8 10.68 -8 9.36 -8 8 C-7.4225 7.979375 -6.845 7.95875 -6.25 7.9375 C-2.61609879 6.4233745 -1.75149584 3.44043825 0 0 Z " fill="#E08127" transform="translate(69,53)"/>
<path d="M0 0 C0.33 0 0.66 0 1 0 C1 2.97 1 5.94 1 9 C3.64 9 6.28 9 9 9 C9 9.33 9 9.66 9 10 C6.36 10 3.72 10 1 10 C1.66 11.98 2.32 13.96 3 16 C5.31 16.33 7.62 16.66 10 17 C10 20.63 10 24.26 10 28 C6 30 6 30 3 30 C3.01160156 30.77085938 3.02320313 31.54171875 3.03515625 32.3359375 C3.04417969 33.33882812 3.05320313 34.34171875 3.0625 35.375 C3.07410156 36.37273437 3.08570313 37.37046875 3.09765625 38.3984375 C3 41 3 41 2 43 C1.34 43 0.68 43 0 43 C0 38.05 0 33.1 0 28 C3.96 27.505 3.96 27.505 8 27 C8.33 24.69 8.66 22.38 9 20 C7.700625 19.855625 6.40125 19.71125 5.0625 19.5625 C1.125 19.125 1.125 19.125 0 18 C-0.08631874 16.65732587 -0.10706473 15.31025678 -0.09765625 13.96484375 C-0.09443359 13.15595703 -0.09121094 12.34707031 -0.08789062 11.51367188 C-0.07951172 10.66353516 -0.07113281 9.81339844 -0.0625 8.9375 C-0.05798828 8.08349609 -0.05347656 7.22949219 -0.04882812 6.34960938 C-0.03700373 4.23304337 -0.01906769 2.11651315 0 0 Z " fill="#C9803F" transform="translate(39,31)"/>
<path d="M0 0 C4.62 0 9.24 0 14 0 C14.12375 1.8871875 14.12375 1.8871875 14.25 3.8125 C14.6280163 7.2783925 14.6280163 7.2783925 17 9.8125 C17.66 10.204375 18.32 10.59625 19 11 C20.49084832 15.47254497 20.49084832 19.52745503 19 24 C18.34 24 17.68 24 17 24 C16.79375 24.61875 16.5875 25.2375 16.375 25.875 C14.45224112 28.84653645 12.33405473 29.13024659 9 30 C10 27 10 27 12 25.9375 C12.99 25.4734375 12.99 25.4734375 14 25 C14.33 24.34 14.66 23.68 15 23 C15.66 23 16.32 23 17 23 C17.33 19.7 17.66 16.4 18 13 C17.34 13 16.68 13 16 13 C14.375 11.625 14.375 11.625 13 10 C13 9.34 13 8.68 13 8 C12.34 8 11.68 8 11 8 C11 6.02 11 4.04 11 2 C10.06027344 2.03480469 10.06027344 2.03480469 9.1015625 2.0703125 C7.87566406 2.09738281 7.87566406 2.09738281 6.625 2.125 C5.81289063 2.14820313 5.00078125 2.17140625 4.1640625 2.1953125 C2 2 2 2 0 0 Z " fill="#CD8842" transform="translate(58,40)"/>
<path d="M0 0 C7.75 -0.125 7.75 -0.125 10 1 C10.04241723 3.33294775 10.04092937 5.66702567 10 8 C9 9 9 9 6.93359375 9.09765625 C6.10988281 9.08605469 5.28617188 9.07445312 4.4375 9.0625 C3.61121094 9.05347656 2.78492188 9.04445313 1.93359375 9.03515625 C1.29550781 9.02355469 0.65742187 9.01195312 0 9 C0 10.65 0 12.3 0 14 C-0.33 14 -0.66 14 -1 14 C-1.09764874 9.21521178 -0.77112541 4.72314313 0 0 Z " fill="#1F0602" transform="translate(38,50)"/>
<path d="M0 0 C1.65 0 3.3 0 5 0 C5.144375 1.11375 5.28875 2.2275 5.4375 3.375 C5.78372035 6.82142047 5.78372035 6.82142047 7 9 C6.34 9.66 5.68 10.32 5 11 C4.01 11 3.02 11 2 11 C-0.06599083 10.93245166 -0.06599083 10.93245166 -2 12 C-2.495 13.155 -2.99 14.31 -3.5 15.5 C-5 19 -5 19 -7.1875 19.9375 C-8.0846875 19.9684375 -8.0846875 19.9684375 -9 20 C-8.67 19.34 -8.34 18.68 -8 18 C-7.77377919 16.29636178 -7.59111527 14.58671299 -7.4375 12.875 C-7.293125 11.26625 -7.14875 9.6575 -7 8 C-3.7 8 -0.4 8 3 8 C3 6.68 3 5.36 3 4 C2.34 4 1.68 4 1 4 C0.67 2.68 0.34 1.36 0 0 Z " fill="#0E0305" transform="translate(97,68)"/>
<path d="M0 0 C1.32 0.66 2.64 1.32 4 2 C4 3.65 4 5.3 4 7 C2.02 7.99 2.02 7.99 0 9 C0 9.66 0 10.32 0 11 C1.32 11.33 2.64 11.66 4 12 C4.93423645 15.01031744 5.04449911 15.86650268 4 19 C2.02 19.33 0.04 19.66 -2 20 C-2 20.66 -2 21.32 -2 22 C-2.66 22 -3.32 22 -4 22 C-4 21.34 -4 20.68 -4 20 C-9.28 20 -14.56 20 -20 20 C-20.33 20.66 -20.66 21.32 -21 22 C-21 21.01 -21 20.02 -21 19 C-13.74 18.67 -6.48 18.34 1 18 C0.67 17.01 0.34 16.02 0 15 C0.33 14.34 0.66 13.68 1 13 C0.34 13 -0.32 13 -1 13 C-1.625 11.1875 -1.625 11.1875 -2 9 C-1.34 8.01 -0.68 7.02 0 6 C0.66 6 1.32 6 2 6 C1.34 4.02 0.68 2.04 0 0 Z " fill="#D28844" transform="translate(52,73)"/>
<path d="M0 0 C0.33 0 0.66 0 1 0 C0.63481229 6.32992036 0.63481229 6.32992036 -2.109375 9.2265625 C-5.72798614 11.44662934 -7.85811437 11.34983346 -12.0625 11.125 C-16.48011582 10.90812665 -19.14240299 10.84402199 -23 13 C-23.66 12.67 -24.32 12.34 -25 12 C-25 11.01 -25 10.02 -25 9 C-20.62333682 6.22916288 -16.89784254 7.25869074 -11.97265625 7.90625 C-8.69677124 8.00956306 -6.86770765 7.55604311 -4 6 C-3.34 5.01 -2.68 4.02 -2 3 C-1.34 3 -0.68 3 0 3 C0 2.01 0 1.02 0 0 Z " fill="#380F03" transform="translate(77,61)"/>
<path d="M0 0 C-0.33 0.99 -0.66 1.98 -1 3 C-1.66 3 -2.32 3 -3 3 C-3 4.32 -3 5.64 -3 7 C-3.66 7 -4.32 7 -5 7 C-5.33 7.99 -5.66 8.98 -6 10 C-6.639375 10.268125 -7.27875 10.53625 -7.9375 10.8125 C-10.338822 11.91161165 -10.338822 11.91161165 -11.25 15.125 C-11.4975 16.07375 -11.745 17.0225 -12 18 C-12.66 18 -13.32 18 -14 18 C-14.33 23.61 -14.66 29.22 -15 35 C-15.33 35 -15.66 35 -16 35 C-16.65805193 21.12607176 -14.65491534 13.78940592 -5.8046875 2.96875 C-3.82150567 0.80527891 -2.94460474 0 0 0 Z " fill="#BD793C" transform="translate(23,13)"/>
<path d="M0 0 C2.875 -0.125 2.875 -0.125 6 0 C9.49930012 3.49930012 9.86259974 8.5435572 10.3125 13.3125 C10 16 10 16 8.75 17.9375 C7 19 7 19 4.8125 18.6875 C4.214375 18.460625 3.61625 18.23375 3 18 C3.99 17.67 4.98 17.34 6 17 C6 13.7 6 10.4 6 7 C5.195625 6.773125 4.39125 6.54625 3.5625 6.3125 C2.716875 5.879375 1.87125 5.44625 1 5 C0.1875 2.375 0.1875 2.375 0 0 Z " fill="#F48C1A" transform="translate(42,42)"/>
<path d="M0 0 C0.33 1.32 0.66 2.64 1 4 C0.01 4.66 -0.98 5.32 -2 6 C-2.66 5.67 -3.32 5.34 -4 5 C-4 5.66 -4 6.32 -4 7 C-2.02 7.66 -0.04 8.32 2 9 C2 9.66 2 10.32 2 11 C6.95 11 11.9 11 17 11 C17 11.33 17 11.66 17 12 C13.5625177 12.02901394 10.12506688 12.04680335 6.6875 12.0625 C5.22280273 12.07506836 5.22280273 12.07506836 3.72851562 12.08789062 C2.79072266 12.09111328 1.85292969 12.09433594 0.88671875 12.09765625 C-0.40939331 12.10551147 -0.40939331 12.10551147 -1.73168945 12.11352539 C-4 12 -4 12 -7 11 C-8.33106622 10.65772583 -9.66400079 10.32248257 -11 10 C-10.360625 9.38125 -9.72125 8.7625 -9.0625 8.125 C-6.96116416 6.17402388 -6.96116416 6.17402388 -6 4 C-2.9375 3.375 -2.9375 3.375 0 3 C0 2.01 0 1.02 0 0 Z " fill="#3C1708" transform="translate(56,89)"/>
<path d="M0 0 C2.32472205 2.85306797 3.7508258 5.54074837 5 9 C2.69 9 0.38 9 -2 9 C-2 12.96 -2 16.92 -2 21 C-6.95 21 -11.9 21 -17 21 C-17 20.67 -17 20.34 -17 20 C-13.37 19.67 -9.74 19.34 -6 19 C-5.34 15.37 -4.68 11.74 -4 8 C-2.35 8 -0.7 8 1 8 C0.67 5.36 0.34 2.72 0 0 Z " fill="#411608" transform="translate(90,64)"/>
<path d="M0 0 C4.85077588 1.11940982 7.777893 2.1334716 11 6 C10.67 6.66 10.34 7.32 10 8 C9.01 7.34 8.02 6.68 7 6 C7 6.99 7 7.98 7 9 C4.125 8.6875 4.125 8.6875 1 8 C-1 5 -1 5 -0.625 2.3125 C-0.41875 1.549375 -0.2125 0.78625 0 0 Z " fill="#290D03" transform="translate(74,40)"/>
<path d="M0 0 C2.5 1.375 2.5 1.375 5 3 C5 3.66 5 4.32 5 5 C6.98 5.66 8.96 6.32 11 7 C11 7.99 11 8.98 11 10 C10.01 10.66 9.02 11.32 8 12 C7.5 14.5 7.5 14.5 8 17 C8.99 17.66 9.98 18.32 11 19 C11 19.66 11 20.32 11 21 C10.01 21.33 9.02 21.66 8 22 C5.97441119 18.65060119 5.78261013 16.13037449 5.875 12.25 C5.89304687 11.26515625 5.91109375 10.2803125 5.9296875 9.265625 C5.95289063 8.51796875 5.97609375 7.7703125 6 7 C5.04867188 6.81244141 5.04867188 6.81244141 4.078125 6.62109375 C2 6 2 6 0.75 4.0625 C0 2 0 2 0 0 Z " fill="#411908" transform="translate(16,63)"/>
<path d="M0 0 C1.375 1.75 1.375 1.75 2 4 C1.67 5.65 1.34 7.3 1 9 C4.63 9.33 8.26 9.66 12 10 C11.67 11.32 11.34 12.64 11 14 C11 13.01 11 12.02 11 11 C10.38511719 11.03480469 9.77023438 11.06960937 9.13671875 11.10546875 C7.92435547 11.14607422 7.92435547 11.14607422 6.6875 11.1875 C5.48673828 11.23970703 5.48673828 11.23970703 4.26171875 11.29296875 C1.4697868 10.93131953 0.69902517 10.19630083 -1 8 C-2.1875 5.3125 -2.1875 5.3125 -3 3 C-4.65 4.65 -6.3 6.3 -8 8 C-7.4140625 1.84765625 -7.4140625 1.84765625 -7 0 C-4.25509788 -1.37245106 -2.87939419 -0.93580311 0 0 Z " fill="#DB8836" transform="translate(57,32)"/>
<path d="M0 0 C-3.22791555 2.1519437 -4.28400809 2.20086443 -8 2 C-7.67 2.99 -7.34 3.98 -7 5 C-4.27366306 6.10213621 -1.95855967 7 1 7 C1 10.3 1 13.6 1 17 C2.98 17 4.96 17 7 17 C7 15.35 7 13.7 7 12 C7.66 12.33 8.32 12.66 9 13 C8.67 14.65 8.34 16.3 8 18 C5.36 18 2.72 18 0 18 C0 15.03 0 12.06 0 9 C-2.64 9 -5.28 9 -8 9 C-9.35439668 6.29120665 -9.06501451 3.99066732 -9 1 C-5.8035914 -0.06546953 -3.34252724 -0.07427838 0 0 Z " fill="#310900" transform="translate(40,22)"/>
<path d="M0 0 C1.32 0.33 2.64 0.66 4 1 C4 2.32 4 3.64 4 5 C6.97 5 9.94 5 13 5 C13 5.66 13 6.32 13 7 C9.04 7 5.08 7 1 7 C-0.45314664 11.60532389 -0.45314664 11.60532389 1 14 C-0.32 13.34 -1.64 12.68 -3 12 C-3 10.35 -3 8.7 -3 7 C-1.68 6.34 -0.36 5.68 1 5 C0.67 3.35 0.34 1.7 0 0 Z " fill="#DB8D48" transform="translate(26,68)"/>
<path d="M0 0 C1.65 0 3.3 0 5 0 C5 4.62 5 9.24 5 14 C1.7 14.33 -1.6 14.66 -5 15 C-4.67 17.31 -4.34 19.62 -4 22 C-4.66 22 -5.32 22 -6 22 C-7.35439668 19.29120665 -7.06501451 16.99066732 -7 14 C-3.7 13.34 -0.4 12.68 3 12 C3 8.37 3 4.74 3 1 C2.01 0.67 1.02 0.34 0 0 Z " fill="#B87A44" transform="translate(36,8)"/>
<path d="M0 0 C0.99 0.33 1.98 0.66 3 1 C3 3.31 3 5.62 3 8 C2.34 8 1.68 8 1 8 C1 8.66 1 9.32 1 10 C-1.31 10.33 -3.62 10.66 -6 11 C-4.18690997 7.22272911 -2.0926741 3.62730178 0 0 Z " fill="#4E1804" transform="translate(69,53)"/>
<path d="M0 0 C4.95 0 9.9 0 15 0 C14 3 14 3 11.8125 4.25 C8.45378752 5.14565666 6.34633374 4.87295663 3 4 C2.01 3.34 1.02 2.68 0 2 C0 1.34 0 0.68 0 0 Z " fill="#521A04" transform="translate(32,93)"/>
<path d="M0 0 C0.33 0 0.66 0 1 0 C1 2.97 1 5.94 1 9 C3.64 9 6.28 9 9 9 C9 9.33 9 9.66 9 10 C6.36 10 3.72 10 1 10 C1.66 11.98 2.32 13.96 3 16 C5.31 16.33 7.62 16.66 10 17 C10 19.97 10 22.94 10 26 C9.67 26 9.34 26 9 26 C9 24.02 9 22.04 9 20 C7.700625 19.855625 6.40125 19.71125 5.0625 19.5625 C1.125 19.125 1.125 19.125 0 18 C-0.08631874 16.65732587 -0.10706473 15.31025678 -0.09765625 13.96484375 C-0.09443359 13.15595703 -0.09121094 12.34707031 -0.08789062 11.51367188 C-0.07951172 10.66353516 -0.07113281 9.81339844 -0.0625 8.9375 C-0.05798828 8.08349609 -0.05347656 7.22949219 -0.04882812 6.34960938 C-0.03700373 4.23304337 -0.01906769 2.11651315 0 0 Z " fill="#A46630" transform="translate(39,31)"/>
<path d="M0 0 C1.32 0.66 2.64 1.32 4 2 C4.3125 4.3125 4.3125 4.3125 4 7 C1.5 8.8125 1.5 8.8125 -1 10 C-1.99 9.34 -2.98 8.68 -4 8 C-4.1875 5.375 -4.1875 5.375 -4 3 C-2.68 2.67 -1.36 2.34 0 2 C0 1.34 0 0.68 0 0 Z " fill="#EC8D24" transform="translate(53,13)"/>
<path d="M0 0 C-0.845625 0.474375 -1.69125 0.94875 -2.5625 1.4375 C-9.53841773 6.11566283 -13.57114542 13.14194106 -16 21 C-17.18510315 18.133704 -17.03001623 17.07778854 -15.890625 14.125 C-15.34921875 13.09375 -14.8078125 12.0625 -14.25 11 C-13.71890625 9.96875 -13.1878125 8.9375 -12.640625 7.875 C-9.5836548 2.51802365 -6.76419832 -2.41578511 0 0 Z " fill="#3D1305" transform="translate(24,12)"/>
<path d="M0 0 C4.62 0 9.24 0 14 0 C15 7.625 15 7.625 15 11 C14.34 10.67 13.68 10.34 13 10 C13 9.34 13 8.68 13 8 C12.34 8 11.68 8 11 8 C11 6.02 11 4.04 11 2 C10.06027344 2.03480469 10.06027344 2.03480469 9.1015625 2.0703125 C7.87566406 2.09738281 7.87566406 2.09738281 6.625 2.125 C5.81289063 2.14820313 5.00078125 2.17140625 4.1640625 2.1953125 C2 2 2 2 0 0 Z " fill="#CA803C" transform="translate(58,40)"/>
<path d="M0 0 C0.66 0.33 1.32 0.66 2 1 C1.59007812 1.69222656 1.18015625 2.38445313 0.7578125 3.09765625 C-3.85243136 11.46888852 -5.25500255 18.59761837 -6 28 C-6.33 28 -6.66 28 -7 28 C-7.41957083 26.27643924 -7.80972176 24.54570079 -8.1875 22.8125 C-8.40792969 21.84957031 -8.62835938 20.88664062 -8.85546875 19.89453125 C-9.03662155 16.26657929 -8.0011228 14.97376155 -6 12 C-4.89961266 9.13351055 -3.93451517 6.24103354 -2.96484375 3.328125 C-2 1 -2 1 0 0 Z " fill="#140202" transform="translate(12,16)"/>
<path d="M0 0 C0 0.99 0 1.98 0 3 C-4.62 3 -9.24 3 -14 3 C-14 2.01 -14 1.02 -14 0 C-9.20699867 -1.39151652 -4.84864218 -0.68662689 0 0 Z " fill="#280300" transform="translate(72,37)"/>
<path d="M0 0 C0.33 0 0.66 0 1 0 C1.39860227 5.71329921 -0.08170352 8.38414116 -3.375 12.875 C-5 14 -5 14 -7.625 13.8125 C-10 13 -10 13 -11 11 C-9.02579865 8.47740939 -8.03254358 8.0070192 -4.8125 7.3125 C-3.884375 7.209375 -2.95625 7.10625 -2 7 C-2 6.34 -2 5.68 -2 5 C-1.34 5 -0.68 5 0 5 C0 3.35 0 1.7 0 0 Z " fill="#DC8F3A" transform="translate(72,56)"/>
<path d="M0 0 C0.33 0.66 0.66 1.32 1 2 C0.67 2.66 0.34 3.32 0 4 C0.66 4 1.32 4 2 4 C2 5.65 2 7.3 2 9 C-3.28 9 -8.56 9 -14 9 C-14 8.34 -14 7.68 -14 7 C-9.71 7 -5.42 7 -1 7 C-1 5.02 -1 3.04 -1 1 C-0.67 0.67 -0.34 0.34 0 0 Z " fill="#B58965" transform="translate(72,91)"/>
<path d="M0 0 C3.96 0 7.92 0 12 0 C12 0.33 12 0.66 12 1 C8.7 1.66 5.4 2.32 2 3 C2.33 6.63 2.66 10.26 3 14 C1.35 14 -0.3 14 -2 14 C-1.67 13.01 -1.34 12.02 -1 11 C-0.77820215 9.10787263 -0.59385985 7.21115528 -0.4375 5.3125 C-0.293125 3.559375 -0.14875 1.80625 0 0 Z " fill="#140304" transform="translate(75,90)"/>
<path d="M0 0 C3.15111212 2.52952288 3.58798017 4.76756266 4.1875 8.6875 C4.42533203 10.17830078 4.42533203 10.17830078 4.66796875 11.69921875 C4.77753906 12.45847656 4.88710937 13.21773437 5 14 C5.66 14 6.32 14 7 14 C7 15.32 7 16.64 7 18 C4 17 4 17 2.35546875 14.83203125 C0.82545874 11.63532446 0.50621378 9.21309073 0.3125 5.6875 C0.24675781 4.61886719 0.18101563 3.55023438 0.11328125 2.44921875 C0.07589844 1.64097656 0.03851563 0.83273438 0 0 Z " fill="#C19268" transform="translate(87,49)"/>
<path d="M0 0 C1.98 0 3.96 0 6 0 C6 2.97 6 5.94 6 9 C3.03 9 0.06 9 -3 9 C-3 8.34 -3 7.68 -3 7 C-0.69 7 1.62 7 4 7 C3.67 5.35 3.34 3.7 3 2 C2.01 2 1.02 2 0 2 C0 1.34 0 0.68 0 0 Z " fill="#DA9049" transform="translate(33,31)"/>
<path d="M0 0 C0.66 0 1.32 0 2 0 C2.50435694 1.9363704 3.00333874 3.87414146 3.5 5.8125 C3.7784375 6.89144531 4.056875 7.97039063 4.34375 9.08203125 C5 12 5 12 5 15 C4.01 15 3.02 15 2 15 C-0.59227518 10.13948404 -0.18689553 5.34728867 0 0 Z " fill="#C08C67" transform="translate(8,40)"/>
<path d="M0 0 C2.97 0.495 2.97 0.495 6 1 C6 1.66 6 2.32 6 3 C7.32 3.33 8.64 3.66 10 4 C7 5 7 5 5 5 C5.33 7.31 5.66 9.62 6 12 C6.66 12 7.32 12 8 12 C7.67 12.99 7.34 13.98 7 15 C5.015625 13.85546875 5.015625 13.85546875 3 12 C2.609375 9.30078125 2.609375 9.30078125 2.75 6.3125 C2.78609375 5.31863281 2.8221875 4.32476562 2.859375 3.30078125 C2.90578125 2.54152344 2.9521875 1.78226563 3 1 C2.01 0.67 1.02 0.34 0 0 Z " fill="#4C1E0B" transform="translate(69,36)"/>
<path d="M0 0 C1.65 0 3.3 0 5 0 C4.01 0.33 3.02 0.66 2 1 C2 1.66 2 2.32 2 3 C1.34 3 0.68 3 0 3 C0 4.65 0 6.3 0 8 C-0.99 8.33 -1.98 8.66 -3 9 C-3.33 9.66 -3.66 10.32 -4 11 C-4.66 10.67 -5.32 10.34 -6 10 C-5.6875 8.0625 -5.6875 8.0625 -5 6 C-4.01 5.67 -3.02 5.34 -2 5 C-2 4.01 -2 3.02 -2 2 C-1.34 2 -0.68 2 0 2 C0 1.34 0 0.68 0 0 Z " fill="#EC8C27" transform="translate(28,37)"/>
<path d="M0 0 C2.31 0 4.62 0 7 0 C6.01 0.33 5.02 0.66 4 1 C3.34 4.3 2.68 7.6 2 11 C0.68 11.33 -0.64 11.66 -2 12 C-1.67 11.34 -1.34 10.68 -1 10 C-0.77377919 8.29636178 -0.59111527 6.58671299 -0.4375 4.875 C-0.35371094 3.96492188 -0.26992187 3.05484375 -0.18359375 2.1171875 C-0.12300781 1.41851562 -0.06242187 0.71984375 0 0 Z " fill="#361509" transform="translate(90,76)"/>
<path d="M0 0 C0.99 0 1.98 0 3 0 C3.33 0.99 3.66 1.98 4 3 C7.48869129 6.62823894 11.20907546 6.60075629 16 7 C16 7.33 16 7.66 16 8 C10.58264203 8.93402724 7.19548425 9.20808081 2 7 C2 5.02 2 3.04 2 1 C1.34 0.67 0.68 0.34 0 0 Z " fill="#381C0C" transform="translate(26,93)"/>
<path d="M0 0 C0.66 0 1.32 0 2 0 C2.0825 0.94875 2.165 1.8975 2.25 2.875 C2.4975 3.90625 2.745 4.9375 3 6 C4.95021083 7.22527948 4.95021083 7.22527948 7 8 C8 11 8 11 7 14 C6.566875 13.21625 6.13375 12.4325 5.6875 11.625 C4.10779753 8.78301625 4.10779753 8.78301625 1 7 C1 6.34 1 5.68 1 5 C-0.32 4.34 -1.64 3.68 -3 3 C-2.01 2.67 -1.02 2.34 0 2 C0 1.34 0 0.68 0 0 Z " fill="#38180A" transform="translate(80,32)"/>
<path d="M0 0 C1.5 1.375 1.5 1.375 3 3 C3 3.66 3 4.32 3 5 C1.865625 5.268125 0.73125 5.53625 -0.4375 5.8125 C-2.2009375 6.4003125 -2.2009375 6.4003125 -4 7 C-4.33 7.99 -4.66 8.98 -5 10 C-5.99 9.34 -6.98 8.68 -8 8 C-7.67 7.01 -7.34 6.02 -7 5 C-5.35 5 -3.7 5 -2 5 C-1.34 3.35 -0.68 1.7 0 0 Z " fill="#BE804E" transform="translate(53,9)"/>
<path d="M0 0 C0.66 1.32 1.32 2.64 2 4 C0.0373772 6.04795423 -1.4277307 6.94976638 -4.26953125 7.19921875 C-6.51954383 7.18858877 -8.75385562 7.12958525 -11 7 C-10 5 -10 5 -7.96875 4.21875 C-6.32291667 3.73958333 -4.67708333 3.26041667 -3.03125 2.78125 C-0.81437525 2.19064164 -0.81437525 2.19064164 0 0 Z " fill="#BB8F69" transform="translate(47,93)"/>
<path d="M0 0 C1.32 0.33 2.64 0.66 4 1 C3.34 4.96 2.68 8.92 2 13 C-2.29 13 -6.58 13 -11 13 C-11 12.67 -11 12.34 -11 12 C-7.04 12 -3.08 12 1 12 C0.67 8.04 0.34 4.08 0 0 Z " fill="#401B09" transform="translate(69,85)"/>
<path d="M0 0 C1.65 0 3.3 0 5 0 C5 1.65 5 3.3 5 5 C4.34 5 3.68 5 3 5 C2.67 5.99 2.34 6.98 2 8 C0.4375 6.25 0.4375 6.25 -1 4 C-0.6875 1.75 -0.6875 1.75 0 0 Z " fill="#100204" transform="translate(12,42)"/>
<path d="M0 0 C1.98 0 3.96 0 6 0 C6 0.66 6 1.32 6 2 C10.95 2 15.9 2 21 2 C21 2.33 21 2.66 21 3 C14.07 3 7.14 3 0 3 C0 2.01 0 1.02 0 0 Z " fill="#644C3A" transform="translate(52,98)"/>
<path d="M0 0 C2.95839355 -0.02689449 5.91654427 -0.04678741 8.875 -0.0625 C9.71675781 -0.07087891 10.55851562 -0.07925781 11.42578125 -0.08789062 C12.23144531 -0.09111328 13.03710938 -0.09433594 13.8671875 -0.09765625 C14.98262939 -0.10551147 14.98262939 -0.10551147 16.12060547 -0.11352539 C18 0 18 0 20 1 C20 1.66 20 2.32 20 3 C18.6696875 2.7525 18.6696875 2.7525 17.3125 2.5 C11.58209173 1.65938226 5.77575419 1.9218319 0 2 C0 1.34 0 0.68 0 0 Z " fill="#452009" transform="translate(57,32)"/>
<path d="M0 0 C3 0 3 0 5.1875 1.8125 C7 4 7 4 7 7 C4.03 6.505 4.03 6.505 1 6 C0.67 4.02 0.34 2.04 0 0 Z " fill="#0B0308" transform="translate(74,42)"/>
<path d="M0 0 C0.33 0 0.66 0 1 0 C1.1875 3.375 1.1875 3.375 1 7 C-2.22213757 9.14809171 -3.27775401 9.29386153 -7 9 C-8 8 -8 8 -8.0625 5.4375 C-8.041875 4.633125 -8.02125 3.82875 -8 3 C-7.34 3 -6.68 3 -6 3 C-6 4.32 -6 5.64 -6 7 C-3.47636012 6.37466625 -3.47636012 6.37466625 -1 5 C-0.10613836 2.45224694 -0.10613836 2.45224694 0 0 Z " fill="#CD894A" transform="translate(28,40)"/>
<path d="M0 0 C-0.33 0.99 -0.66 1.98 -1 3 C-1.7425 3.144375 -2.485 3.28875 -3.25 3.4375 C-5.90291347 3.91855534 -5.90291347 3.91855534 -8 4.6875 C-10.76987352 5.12029274 -12.51109017 4.17531853 -15 3 C-15 2.67 -15 2.34 -15 2 C-12.87528825 1.6648342 -10.75022095 1.33192171 -8.625 1 C-7.44164062 0.814375 -6.25828125 0.62875 -5.0390625 0.4375 C-2 0 -2 0 0 0 Z " fill="#180503" transform="translate(51,99)"/>
<path d="M0 0 C0.99 0.99 1.98 1.98 3 3 C-0.96 3 -4.92 3 -9 3 C-9 2.34 -9 1.68 -9 1 C-5.95016004 -0.52491998 -3.3576631 -0.23562548 0 0 Z " fill="#C8804E" transform="translate(83,86)"/>
<path d="M0 0 C0.33 0 0.66 0 1 0 C1.22036864 3.85645121 0.60355101 6.49223216 -1 10 C-1.99 10 -2.98 10 -4 10 C-4.33 11.32 -4.66 12.64 -5 14 C-5.1875 10.625 -5.1875 10.625 -5 7 C-4.01 6.34 -3.02 5.68 -2 5 C-0.79549696 2.44816596 -0.79549696 2.44816596 0 0 Z " fill="#F28C1D" transform="translate(65,51)"/>
<path d="M0 0 C0.33 0.99 0.66 1.98 1 3 C-1.97 5.475 -1.97 5.475 -5 8 C-5.33 5.69 -5.66 3.38 -6 1 C-4 0 -4 0 0 0 Z " fill="#25140B" transform="translate(55,6)"/>
<path d="M0 0 C6.6 0 13.2 0 20 0 C19.67 1.65 19.34 3.3 19 5 C18.34 5 17.68 5 17 5 C16.67 3.68 16.34 2.36 16 1 C10.72 1 5.44 1 0 1 C0 0.67 0 0.34 0 0 Z " fill="#E88A31" transform="translate(32,80)"/>
<path d="M0 0 C2.49121467 2.49121467 2.54979927 3.9999909 3.125 7.4375 C3.29257813 8.40558594 3.46015625 9.37367187 3.6328125 10.37109375 C4 13 4 13 4 16 C2.04341129 14.35814406 1.09559094 13.39622809 0.48828125 10.87890625 C0.43027344 10.11449219 0.37226562 9.35007812 0.3125 8.5625 C0.24675781 7.80066406 0.18101563 7.03882813 0.11328125 6.25390625 C0.00862246 4.17155729 0 2.08497738 0 0 Z " fill="#4D2811" transform="translate(85,48)"/>
<path d="M0 0 C0.33 0.66 0.66 1.32 1 2 C1.66 2 2.32 2 3 2 C3.36253776 7.43806647 3.36253776 7.43806647 1.75 9.9375 C0 11 0 11 -2.1875 10.6875 C-2.785625 10.460625 -3.38375 10.23375 -4 10 C-3.01 9.67 -2.02 9.34 -1 9 C-0.67 6.03 -0.34 3.06 0 0 Z " fill="#EC8D2A" transform="translate(49,50)"/>
<path d="M0 0 C3.96 0 7.92 0 12 0 C8.28633571 1.85683215 5.7841109 2.51111356 1.75 3.125 C0.67234375 3.29257813 -0.4053125 3.46015625 -1.515625 3.6328125 C-2.33546875 3.75398437 -3.1553125 3.87515625 -4 4 C-2.68 3.34 -1.36 2.68 0 2 C0 1.34 0 0.68 0 0 Z " fill="#431D06" transform="translate(28,7)"/>
<path d="M0 0 C1.65 0 3.3 0 5 0 C6.125 5.75 6.125 5.75 5 8 C4.34 8 3.68 8 3 8 C3 6.68 3 5.36 3 4 C2.34 4 1.68 4 1 4 C0.67 2.68 0.34 1.36 0 0 Z " fill="#1F0703" transform="translate(97,68)"/>
<path d="M0 0 C0.33 0 0.66 0 1 0 C0.25 6.75 0.25 6.75 -2 9 C-5.625 9.125 -5.625 9.125 -9 9 C-8.401875 8.7525 -7.80375 8.505 -7.1875 8.25 C-4.71222841 6.83555909 -3.66569196 5.27139812 -2 3 C-1.34 3 -0.68 3 0 3 C0 2.01 0 1.02 0 0 Z " fill="#3E1906" transform="translate(77,61)"/>
<path d="M0 0 C0.33 0 0.66 0 1 0 C1 2.97 1 5.94 1 9 C-1.97 9.66 -4.94 10.32 -8 11 C-7.67 9.68 -7.34 8.36 -7 7 C-6.67 7.33 -6.34 7.66 -6 8 C-4.00041636 8.04080783 -1.99954746 8.04254356 0 8 C0 5.36 0 2.72 0 0 Z " fill="#EA9032" transform="translate(38,11)"/>
<path d="M0 0 C0.33 0 0.66 0 1 0 C1.144375 1.2375 1.28875 2.475 1.4375 3.75 C1.71549453 6.06389568 2.03806239 8.13148826 2.6875 10.375 C2.790625 10.91125 2.89375 11.4475 3 12 C2.34 12.66 1.68 13.32 1 14 C-0.80707581 12.19292419 -0.42307598 9.44616525 -0.625 7 C-0.72039063 5.906875 -0.81578125 4.81375 -0.9140625 3.6875 C-0.94242188 2.800625 -0.97078125 1.91375 -1 1 C-0.67 0.67 -0.34 0.34 0 0 Z " fill="#1D0500" transform="translate(21,73)"/>
<path d="M0 0 C0.66 0.33 1.32 0.66 2 1 C2 1.99 2 2.98 2 4 C3.32 4 4.64 4 6 4 C6 4.66 6 5.32 6 6 C6.99 6.33 7.98 6.66 9 7 C8.01 7.495 8.01 7.495 7 8 C5.08984375 7.328125 5.08984375 7.328125 2.9375 6.25 C2.22464844 5.90453125 1.51179688 5.5590625 0.77734375 5.203125 C-1 4 -1 4 -2 1 C-1.34 0.67 -0.68 0.34 0 0 Z " fill="#38180A" transform="translate(20,59)"/>
<path d="M0 0 C0.66 0 1.32 0 2 0 C2 0.66 2 1.32 2 2 C2.804375 2.2475 3.60875 2.495 4.4375 2.75 C7 4 7 4 7.8125 6.125 C7.874375 6.74375 7.93625 7.3625 8 8 C4.11137013 6.73882275 2.10624401 5.54735833 0 2 C0 1.34 0 0.68 0 0 Z " fill="#1D0805" transform="translate(8,57)"/>
<path d="M0 0 C0.99 0.33 1.98 0.66 3 1 C3 1.66 3 2.32 3 3 C3.99 3 4.98 3 6 3 C6.33 4.65 6.66 6.3 7 8 C4 8 4 8 2.375 6.8125 C0.68587944 4.58593199 0.37047118 2.74148672 0 0 Z " fill="#EF8E25" transform="translate(30,30)"/>
<path d="M0 0 C-0.969375 0.61875 -1.93875 1.2375 -2.9375 1.875 C-6.02835362 3.65678846 -6.02835362 3.65678846 -7 6 C-7.99 6 -8.98 6 -10 6 C-8.54794521 1.40182648 -8.54794521 1.40182648 -6.125 -0.375 C-3.6665651 -1.09806909 -2.38500154 -0.85178626 0 0 Z " fill="#2A0B01" transform="translate(24,12)"/>
<path d="M0 0 C2 4 2 4 1.625 6.25 C1.41875 6.8275 1.2125 7.405 1 8 C1.66 8 2.32 8 3 8 C3.33 7.34 3.66 6.68 4 6 C4.33 6.99 4.66 7.98 5 9 C3.35 10.32 1.7 11.64 0 13 C0 8.71 0 4.42 0 0 Z " fill="#2D0B03" transform="translate(41,9)"/>
<path d="M0 0 C3 3.75 3 3.75 3 6 C4.32 6.33 5.64 6.66 7 7 C7 7.99 7 8.98 7 10 C6.34 10 5.68 10 5 10 C5 9.34 5 8.68 5 8 C2.525 7.01 2.525 7.01 0 6 C0 4.02 0 2.04 0 0 Z " fill="#1E0A01" transform="translate(21,87)"/>
<path d="M0 0 C0.33 0 0.66 0 1 0 C1 3.63 1 7.26 1 11 C0.67 10.34 0.34 9.68 0 9 C-2.02463255 8.34786708 -2.02463255 8.34786708 -4 8 C-4 7.34 -4 6.68 -4 6 C-3.01 5.34 -2.02 4.68 -1 4 C-0.27617533 1.94074861 -0.27617533 1.94074861 0 0 Z " fill="#511E0D" transform="translate(56,76)"/>
<path d="M0 0 C0.66 0 1.32 0 2 0 C2.73080266 1.97746603 3.39421747 3.98072489 4 6 C3.67 6.66 3.34 7.32 3 8 C2.34 8 1.68 8 1 8 C0.34 5.69 -0.32 3.38 -1 1 C-0.67 0.67 -0.34 0.34 0 0 Z " fill="#1A0602" transform="translate(56,72)"/>
<path d="M0 0 C-1.32 0.33 -2.64 0.66 -4 1 C-4 1.66 -4 2.32 -4 3 C-5.32 3.33 -6.64 3.66 -8 4 C-8 5.65 -8 7.3 -8 9 C-10 5.25 -10 5.25 -10 3 C-6.58168085 0.4606772 -4.24223102 -0.3636198 0 0 Z " fill="#E08A38" transform="translate(60,66)"/>
<path d="M0 0 C4.60209225 -0.17700355 6.78370866 -0.10814567 11 2 C7.37 2.33 3.74 2.66 0 3 C0 2.01 0 1.02 0 0 Z " fill="#B77251" transform="translate(58,34)"/>
<path d="M0 0 C0.33 0.66 0.66 1.32 1 2 C1.66 2 2.32 2 3 2 C1.92598892 4.91517292 1.22189824 6.77810176 -1 9 C-1.09765625 2.84765625 -1.09765625 2.84765625 -1 1 C-0.67 0.67 -0.34 0.34 0 0 Z " fill="#240E07" transform="translate(60,17)"/>
<path d="M0 0 C3 1 3 1 5 3 C5.39764263 4.98821313 5.73775349 6.98944339 6 9 C4.5 7.625 4.5 7.625 3 6 C3 5.34 3 4.68 3 4 C2.34 4 1.68 4 1 4 C0.67 2.68 0.34 1.36 0 0 Z " fill="#3C1A08" transform="translate(91,59)"/>
<path d="M0 0 C0.66 0.66 1.32 1.32 2 2 C1.67 2.66 1.34 3.32 1 4 C1.99 4.33 2.98 4.66 4 5 C1.69 5.33 -0.62 5.66 -3 6 C-2 4 -1 2 0 0 Z " fill="#621F02" transform="translate(66,58)"/>
<path d="M0 0 C0.99 0.33 1.98 0.66 3 1 C3.125 4.375 3.125 4.375 3 8 C2.34 8.66 1.68 9.32 1 10 C0.67 6.7 0.34 3.4 0 0 Z " fill="#3B1504" transform="translate(77,51)"/>
<path d="M0 0 C-3.22791555 2.1519437 -4.28400809 2.20086443 -8 2 C-8 2.66 -8 3.32 -8 4 C-8.99 4 -9.98 4 -11 4 C-11 3.01 -11 2.02 -11 1 C-7.26562152 0.12132271 -3.83225427 -0.08912219 0 0 Z " fill="#3F0800" transform="translate(69,36)"/>
<path d="M0 0 C0.77321882 2.98241547 1.41196203 5.97580475 2 9 C0.68 8.34 -0.64 7.68 -2 7 C-2.125 4.625 -2.125 4.625 -2 2 C-1.34 1.34 -0.68 0.68 0 0 Z " fill="#CD8A4D" transform="translate(25,73)"/>
<path d="M0 0 C0 2.97 0 5.94 0 9 C-0.66 8.67 -1.32 8.34 -2 8 C-2.40729228 5.67843403 -2.74438677 3.3431213 -3 1 C-1 0 -1 0 0 0 Z " fill="#0B0509" transform="translate(20,85)"/>
<path d="M0 0 C2 2 2 2 2 6 C1.34 6 0.68 6 0 6 C-0.33 6.99 -0.66 7.98 -1 9 C-1.09765625 2.84765625 -1.09765625 2.84765625 -1 1 C-0.67 0.67 -0.34 0.34 0 0 Z " fill="#0B050A" transform="translate(19,76)"/>
<path d="M0 0 C1.5625 1.1875 1.5625 1.1875 3 3 C2.6875 5.6875 2.6875 5.6875 2 8 C0.68 6.35 -0.64 4.7 -2 3 C-1.34 2.67 -0.68 2.34 0 2 C0 1.34 0 0.68 0 0 Z " fill="#B27E4F" transform="translate(94,65)"/>
<path d="M0 0 C1.98 0.66 3.96 1.32 6 2 C5.01 3.485 5.01 3.485 4 5 C2.02 4.34 0.04 3.68 -2 3 C-1.34 2.01 -0.68 1.02 0 0 Z " fill="#A3734E" transform="translate(23,65)"/>
<path d="M0 0 C0.66 1.32 1.32 2.64 2 4 C2.66 4 3.32 4 4 4 C4 5.32 4 6.64 4 8 C3.01 7.67 2.02 7.34 1 7 C0.67 4.69 0.34 2.38 0 0 Z " fill="#BE8762" transform="translate(90,59)"/>
<path d="M0 0 C0.66 0 1.32 0 2 0 C2 0.99 2 1.98 2 3 C1.34 3 0.68 3 0 3 C0 4.65 0 6.3 0 8 C-1.98 8 -3.96 8 -6 8 C-6 7.67 -6 7.34 -6 7 C-4.35 7 -2.7 7 -1 7 C-1.020625 6.030625 -1.04125 5.06125 -1.0625 4.0625 C-1 1 -1 1 0 0 Z " fill="#1A0101" transform="translate(47,31)"/>
<path d="M0 0 C2.97 0.495 2.97 0.495 6 1 C4.625 3 4.625 3 3 5 C2.34 5 1.68 5 1 5 C0.67 3.35 0.34 1.7 0 0 Z " fill="#C78848" transform="translate(56,14)"/>
<path d="M0 0 C0.66 1.32 1.32 2.64 2 4 C-1.75 7 -1.75 7 -4 7 C-4 6.34 -4 5.68 -4 5 C-3.34 5 -2.68 5 -2 5 C-1.34 3.35 -0.68 1.7 0 0 Z " fill="#BC8362" transform="translate(47,93)"/>
<path d="M0 0 C2.875 -0.125 2.875 -0.125 6 0 C6.66 0.66 7.32 1.32 8 2 C7.34 2 6.68 2 6 2 C5.67 2.66 5.34 3.32 5 4 C4.01 3.67 3.02 3.34 2 3 C2 2.34 2 1.68 2 1 C1.34 0.67 0.68 0.34 0 0 Z " fill="#AE8059" transform="translate(73,36)"/>
<path d="M0 0 C1.32 0.33 2.64 0.66 4 1 C4 4 4 4 2 7 C1.34 4.69 0.68 2.38 0 0 Z " fill="#E88E3B" transform="translate(54,33)"/>
<path d="M0 0 C0.66 0 1.32 0 2 0 C2.33 1.98 2.66 3.96 3 6 C1.02 5.34 -0.96 4.68 -3 4 C-2.01 3.34 -1.02 2.68 0 2 C0 1.34 0 0.68 0 0 Z " fill="#1D0C08" transform="translate(80,32)"/>
</svg>
